# xmcd
#
# Track frame offsets:
#	150
#	16853
#	36172
#	47718
#	77372
#	91682
#	110406
#	136691
#	156667
#	185402
#	216323
#	231865
#
# Disc length: 3373 seconds
#
# Revision: 1
# Processed by: cddbd v1.5.2PL0 Copyright (c) Steve Scherf et al.
# Submitted via: audiograbber 1.83.01
#
DISCID=920d2b0c
DTITLE=Rob Fiester - Tyrone Shuz and His Funky Bluz
DYEAR=2005
DGENRE=Blues
TTITLE0=Funkin' A
TTITLE1=If You Won't Do It
TTITLE2=Brown Truck Blues
TTITLE3=2 A.M.
TTITLE4=Six Gun
TTITLE5=Song For Dominic
TTITLE6=Three...Four...Funk!
TTITLE7=Will It Go Round In Circles
TTITLE8=The Chill
TTITLE9=Hangin' Man
TTITLE10=Stick It
TTITLE11=Angel
EXTD=
EXTT0=
EXTT1=
EXTT2=
EXTT3=
EXTT4=
EXTT5=
EXTT6=
EXTT7=
EXTT8=
EXTT9=
EXTT10=
EXTT11=
PLAYORDER=
